<svg width="169" height="166" viewBox="0 0 169 166" fill="none" xmlns="http://www.w3.org/2000/svg">
<g clip-path="url(#clip0_1_35)">
<path d="M76.6414 114.452C76.468 114.699 76.342 114.925 76.1817 115.138C75.835 115.632 75.5355 116.106 75.1888 116.6C73.321 119.216 70.7853 120.4 67.5214 120.206C64.6865 120.02 62.001 119.342 59.4306 118.16C59.1567 118.055 58.8959 117.916 58.5536 117.784C58.4734 118.812 58.4879 119.798 58.3312 120.718C58.1745 121.638 57.7993 122.514 57.4875 123.531C57.6878 123.726 57.9776 123.994 58.2333 124.249C59.3928 125.321 60.2551 126.554 60.1573 128.241C60.1602 128.438 60.3816 128.68 60.5477 128.862C61.067 129.453 61.6599 129.955 62.0714 130.622C63.332 132.557 63.369 134.61 62.2821 136.624C61.5995 137.891 60.4791 138.559 59.0369 138.633C57.4446 138.689 56.0148 138.218 54.7082 137.325C54.3367 137.065 53.9813 136.968 53.5522 136.96C47.3514 137.051 42.2922 134.678 38.2012 130.089C36.5326 128.194 35.6085 125.997 35.0893 123.563C34.9277 122.756 34.8003 121.962 34.6518 121.121C34.3859 121.097 34.1201 121.074 33.8753 121.097C32.9014 121.077 31.9276 121.056 30.9326 120.988C24.9365 120.647 19.5337 115.281 19.0543 109.059C18.8557 106.198 19.1757 103.42 20.6356 100.843C20.6749 100.741 20.7012 100.672 20.7536 100.536C20.6429 100.415 20.5111 100.246 20.3662 100.112C16.6407 97.2322 15.5011 93.3445 16.3005 88.9069C17.003 84.8243 19.2227 81.5982 22.5015 79.0922C22.6697 78.9607 22.8249 78.8634 22.9589 78.7188C22.972 78.6846 22.9851 78.6504 23.0114 78.5821C22.9138 78.427 22.782 78.2588 22.6501 78.0906C19.4025 74.3743 18.7335 70.079 20.1776 65.4967C21.1605 62.4234 22.8018 59.6812 25.2756 57.5329C26.9292 56.0893 28.7677 55.1872 30.9704 54.9737C31.1336 54.9579 31.2756 54.8948 31.4861 54.8579C31.4883 54.5451 31.5117 54.2796 31.5139 53.9668C31.528 50.757 31.9449 47.6234 33.0778 44.5685C35.5011 38.0485 42.2084 34.8976 47.8417 35.5692C49.8608 35.8342 51.8274 36.2359 53.6972 36.9926C53.971 37.0977 54.2449 37.2028 54.5319 37.2737C54.6003 37.2999 54.6477 37.2789 54.8109 37.2631C54.9369 37.037 55.0891 36.7425 55.2625 36.4954C56.9038 33.7531 58.9931 31.3789 61.8573 29.8508C66.1732 27.5075 70.427 27.8851 74.5495 30.4471C74.776 30.5732 74.9894 30.7335 75.2502 30.8728C75.3842 30.7282 75.5051 30.6178 75.5576 30.481C77.5312 26.2587 81.1113 24.8094 85.4489 24.8662C89.6022 24.8915 92.9527 26.8044 95.8201 29.6691C96.3868 30.2394 96.9403 30.8439 97.4938 31.4484C97.5281 31.4615 97.5623 31.4746 97.6781 31.4799C97.8464 31.3484 98.0278 31.1827 98.2091 31.0171C103.654 24.9117 114.823 25.5899 119.57 32.6654C119.667 32.8205 119.744 32.9282 119.91 33.1096C120.147 33.0044 120.383 32.8991 120.607 32.8281C121.528 32.4756 122.454 32.0075 123.451 31.7628C127.629 30.6997 131.996 32.7281 133.783 36.6682C134.345 37.8642 134.623 39.1864 135.03 40.4796C135.131 40.8319 135.197 41.171 135.297 41.5232C135.645 41.5389 135.945 41.5756 136.224 41.565C140.656 41.5797 144.541 43.227 147.903 45.9286C151.375 48.7511 152.657 52.5756 152.381 56.9789C152.221 59.5446 151.522 61.9817 150.399 64.2953C150.299 64.453 150.22 64.6581 150.155 64.829C150.128 64.8973 150.149 64.9446 150.144 65.0603C150.234 65.1339 150.345 65.2548 150.516 65.3205C154.132 67.257 155.942 70.4216 156.489 74.3173C157.055 78.0632 156.125 81.5098 153.868 84.5255C153.041 85.6587 152.008 86.7131 150.967 87.686C150.302 88.2934 149.45 88.6722 148.626 89.1797C148.65 89.4242 148.682 89.7502 148.714 90.0761C149.02 92.35 148.923 94.5476 148.315 96.7455C147.297 100.628 143.39 103.952 139.372 104.292C138.406 104.353 137.424 104.251 136.382 104.204C136.293 104.64 136.156 105.097 136.054 105.568C135.518 107.989 134.226 109.924 132.267 111.447C130.8 112.609 129.138 113.461 127.383 114.043C124.544 114.992 121.917 114.572 119.548 112.762C119.314 112.554 119.019 112.402 118.75 112.181C118.716 112.168 118.682 112.155 118.532 112.136C117.228 115.636 114.625 117.813 111.026 118.902C107.346 119.999 104.104 119.03 101.161 116.567C101.027 116.712 100.919 116.788 100.867 116.925C99.8061 118.871 98.3026 120.333 96.4618 121.547C95.3022 122.318 93.9867 122.676 92.5787 122.763C88.823 122.929 85.3188 122.134 82.1235 120.124C80.1242 118.886 78.5007 117.283 77.2794 115.246C77.1264 115.03 77.0208 114.794 76.8679 114.578C76.8206 114.599 76.7521 114.573 76.6414 114.452ZM118.125 34.385C118.04 34.1957 117.977 34.0538 117.879 33.8987C116.244 31.5069 114.029 29.9118 111.201 29.2973C106.167 28.1892 101.834 29.3495 98.5389 33.5354C98.4048 33.68 98.305 33.8377 98.171 33.9823C98.0974 34.0717 98.0107 34.1953 97.9029 34.2716C97.2641 34.8106 96.5663 34.5821 96.31 33.8172C96.2306 33.5123 96.1301 33.16 95.9429 32.9314C94.6327 31.3308 93.1884 29.8748 91.4498 28.7764C88.2757 26.8134 84.9113 26.2675 81.3413 27.4855C79.8575 27.9748 78.6585 28.8478 77.9365 30.2176C77.3799 31.2587 76.9261 32.3393 76.4168 33.3593C76.2777 33.6196 76.207 33.9062 76.1021 34.1796C75.8107 34.7343 75.3846 34.9237 74.8922 34.774C74.4814 34.6164 74.1755 34.1853 74.338 33.6595C74.5398 33.0312 74.2761 32.6948 73.8151 32.361C70.3773 30.0617 66.747 29.4921 63.0386 31.4804C59.9719 33.1268 57.6721 35.5379 56.3316 38.8268C56.0562 39.5446 55.617 39.7681 54.885 39.5264C54.2214 39.311 53.6314 39.0062 52.9679 38.7908C50.8112 37.9633 48.5838 37.4223 46.2835 37.4807C41.5198 37.6133 37.8325 39.6489 35.5668 43.9159C33.8446 47.176 33.502 50.7302 33.5621 54.3606C33.573 54.6392 33.7682 54.9494 33.9422 55.2122C34.4644 56.0007 34.1548 56.7053 33.2101 56.8133C32.9653 56.837 32.6863 56.8476 32.4336 56.7898C31.199 56.6298 29.9833 56.8299 28.9365 57.4084C27.9976 57.9108 27.0666 58.4946 26.3149 59.2256C24.0858 61.3502 22.5996 63.9951 21.8746 67.0105C21.0112 70.7961 21.8369 74.1713 24.5543 77.0176C24.9206 77.3934 25.2869 77.7692 25.5928 78.2003C25.9541 78.6918 25.9205 79.1886 25.45 79.5962C25.2817 79.7277 25.1265 79.825 24.9371 79.9092C23.5036 80.5746 22.3679 81.5896 21.4326 82.799C19.5276 85.2048 18.1704 87.8208 18.1825 90.9622C18.1946 94.1036 19.2957 96.761 21.9775 98.5742C22.1698 98.6872 22.3963 98.8133 22.5281 98.9816C22.6891 99.2786 22.9054 99.636 22.9032 99.9488C22.8303 100.548 22.71 101.169 22.4529 101.737C21.1087 104.318 20.9308 107.034 21.353 109.823C22.0643 114.213 26.1837 118.42 30.8454 118.758C32.2563 118.869 33.7196 118.842 35.1356 118.836C36.1911 118.849 36.4809 119.117 36.6666 120.169C36.9134 121.675 37.1944 123.194 37.5701 124.672C37.9459 126.149 38.7135 127.424 39.7309 128.559C43.4425 132.806 48.104 134.987 53.7862 134.815C54.3442 134.794 54.7681 134.917 55.2423 135.217C56.2248 135.829 57.2547 136.42 58.4682 136.533C59.7975 136.651 60.4786 136.206 60.8954 134.916C60.9609 134.745 61.0054 134.526 61.0367 134.342C61.2378 133.204 60.9575 132.195 60.1957 131.314C59.6764 130.723 59.0019 130.229 58.3748 129.714C57.6793 129.172 57.5788 128.82 57.9831 128.074C58.1485 127.745 58.1849 127.445 58.0109 127.182C57.7734 126.778 57.536 126.373 57.2593 126.071C56.3736 125.103 55.2672 124.404 53.9955 124.034C53.3531 123.866 53.0734 123.367 53.1885 122.862C53.3168 122.323 53.7822 122.031 54.4851 122.144C54.8537 122.207 55.2565 122.283 55.5777 122.367C56.5495 120.858 56.7704 118.747 56.2308 116.775C56.0932 116.213 55.8216 115.795 55.3868 115.393C52.5805 112.983 50.7525 109.968 49.937 106.362C49.3756 103.833 48.7458 101.278 48.1844 98.7492C48.0096 97.9764 48.2063 97.4638 48.7825 97.2927C49.3587 97.1217 49.8329 97.4213 50.1445 98.2467C50.2079 98.3886 50.2581 98.5647 50.2873 98.6935C50.671 100.252 51.0758 101.858 51.4596 103.417C51.8142 104.847 52.1083 106.332 52.5787 107.768C52.9064 108.756 53.3842 109.763 53.9828 110.659C57.1211 115.274 61.6406 117.518 67.137 118.137C70.3011 118.489 72.584 117.247 74.186 114.608C74.5247 114.032 74.8423 113.409 75.1811 112.833C75.3334 112.538 75.4514 112.231 75.6036 111.936C76.1602 110.895 76.9629 110.85 77.6169 111.807C78.1814 112.69 78.7116 113.56 79.276 114.443C80.1121 115.744 81.1295 116.88 82.3889 117.794C85.4028 119.97 88.8072 120.924 92.5286 120.744C93.7734 120.673 94.9258 120.331 95.9092 119.61C97.6603 118.322 99.1427 116.812 99.7504 114.615C100.015 113.618 100.931 113.381 101.737 114.044C101.916 114.191 102.048 114.359 102.214 114.54C106.012 118.664 112.71 118.097 115.82 113.37C116.479 112.368 116.817 111.282 117.168 110.162C117.532 109.008 118.306 108.835 119.21 109.652C119.824 110.201 120.391 110.772 121.031 111.252C122.725 112.569 124.628 112.829 126.675 112.203C128.146 111.748 129.511 111.056 130.757 110.162C132.65 108.81 133.843 107.033 134.258 104.722C134.352 104.17 134.399 103.639 134.493 103.087C134.639 102.398 134.942 102.122 135.65 102.119C136.16 102.119 136.692 102.166 137.198 102.282C138.556 102.529 139.869 102.484 141.135 101.95C144.125 100.705 146.089 98.5572 146.674 95.2921C147.071 93.1312 146.979 91.0177 146.539 88.8885C146.46 88.5835 146.393 88.2444 146.395 87.9316C146.413 87.2718 146.849 86.8511 147.471 86.9719C148.413 87.1767 149.094 86.7322 149.665 86.1669C150.637 85.1677 151.644 84.1817 152.437 83.0354C155.345 78.9364 155.341 73.5237 152.532 69.5839C151.309 67.8597 149.626 66.8217 147.556 66.3806C147.564 66.4621 147.517 66.4831 147.538 66.5304C147.583 66.8222 147.628 67.114 147.687 67.3716C148.755 73.3886 147.584 78.8988 143.966 83.8234C138.239 91.585 127.954 94.5396 118.788 91.1007C110.135 87.8589 104.391 79.6953 104.429 70.6917C104.417 69.3931 104.332 69.2039 103.134 68.7441C102.621 68.5471 102.034 68.4395 101.51 68.4738C99.8098 68.6056 98.35 69.3394 97.0461 70.4859C96.7438 70.762 96.6731 71.0485 96.7947 71.4481C96.9163 71.8476 97.0248 72.2813 97.1122 72.6677C98.6018 80.4538 96.5974 87.2129 90.7749 92.6638C82.944 99.9711 70.7689 100.279 62.248 93.5198C52.6943 85.9723 51.1651 72.2504 58.8461 63.082C69.0024 50.9424 88.8881 53.6715 95.6165 68.1729C95.7643 68.5041 95.9252 68.8011 96.06 69.1665C96.741 68.722 97.3406 68.2855 98.0165 67.9567C98.7056 67.5938 99.4501 67.2913 100.189 67.1045C100.916 66.9518 101.663 66.8465 102.413 66.9383C103.163 67.0302 103.882 67.306 104.58 67.5345C106.925 57.5341 112.949 51.4549 123.151 49.841C127.451 49.1775 131.608 49.9099 135.516 51.8017C141.276 54.5999 145.162 59.11 147.276 65.3712C147.843 64.6087 148.332 64.0513 148.684 63.4413C149.871 61.2697 150.441 58.8616 150.48 56.4063C150.606 51.9846 148.798 48.5072 144.905 46.2684C144.068 45.7902 143.169 45.3672 142.319 44.9231C139.967 43.7854 137.463 43.4522 134.913 43.65C134.308 43.6922 133.668 43.7212 133.063 43.7634C132.308 43.7873 131.868 43.5009 131.799 42.9646C131.716 42.4625 132.045 42.1181 132.716 41.905C132.892 41.855 133.068 41.805 133.326 41.7471C132.951 40.2698 132.656 38.7846 131.997 37.4336C130.413 34.3951 127.111 32.9711 123.835 33.8315C122.391 34.2183 121.107 34.9021 119.943 35.7883C119.701 36.0092 119.438 36.1827 119.141 36.3432C118.749 36.5457 118.359 36.4354 118.082 36.1331C117.805 35.8309 117.787 35.4707 117.986 35.1552C117.804 34.8109 117.951 34.6321 118.125 34.385ZM136.998 63.1918C137.194 62.6792 137.176 62.319 136.83 61.9905C136.485 61.662 136.056 61.6542 135.651 61.8909C135.401 62.0303 135.194 62.2643 134.999 62.4641C130.844 66.9472 126.689 71.4303 122.568 75.9265C122.36 76.1605 122.139 76.4287 122 76.689C121.809 77.086 121.909 77.4382 122.254 77.7667C122.544 78.0348 122.926 78.0636 123.271 77.8821C123.52 77.7428 123.749 77.5561 123.957 77.322C128.172 72.7837 132.341 68.2665 136.522 63.7151C136.703 63.5494 136.877 63.3023 136.998 63.1918ZM71.5214 82.453C71.3589 82.9788 71.412 83.3521 71.7362 83.6333C72.0603 83.9145 72.4762 83.9564 72.8127 83.6935C73.0757 83.5199 73.3175 83.2991 73.5383 83.0309C77.6803 78.582 81.7881 74.1199 85.8959 69.6579C86.1035 69.4239 86.3242 69.1557 86.4634 68.8954C86.655 68.4984 86.6019 68.1251 86.2777 67.8439C85.9667 67.5285 85.5851 67.4997 85.1932 67.7022C84.9433 67.8416 84.7146 68.0283 84.5412 68.2755C80.3256 72.8138 76.1573 77.331 71.9759 81.8825C71.7946 82.0481 71.6212 82.2953 71.5214 82.453ZM130.91 57.0525C130.83 56.7475 130.79 56.3401 130.59 56.1456C130.355 55.938 129.939 55.896 129.613 55.9277C129.321 55.9724 129.053 56.2616 128.824 56.4483C124.466 60.5398 120.094 64.6654 115.736 68.7569C115.555 68.9225 115.386 69.054 115.274 69.2459C114.94 69.706 114.927 70.2502 115.273 70.5787C115.618 70.9072 116.115 70.9413 116.594 70.6152C116.749 70.5179 116.87 70.4074 116.957 70.2839C121.389 66.103 125.807 61.9564 130.239 57.7755C130.455 57.623 130.628 57.3759 130.91 57.0525ZM80.4044 62.8848C80.325 62.5799 80.2719 62.2067 80.0978 61.9438C79.8473 61.5732 79.4183 61.5654 79.0395 61.7338C78.7896 61.8732 78.5609 62.0599 78.3322 62.2466C73.9607 66.3722 69.555 70.4847 65.1836 74.6103C65.0022 74.7759 64.8077 74.9758 64.6817 75.2019C64.4558 75.5857 64.4143 76.0011 64.7806 76.3769C65.1127 76.7396 65.5418 76.7474 65.9337 76.5449C66.1362 76.4265 66.3044 76.2951 66.4858 76.1294C70.9177 71.9486 75.3365 67.8019 79.7684 63.6211C79.9498 63.4554 80.1232 63.2083 80.4044 62.8848Z" fill="black"/>
<path d="M118.124 34.3852C117.951 34.6323 117.804 34.8111 117.691 35.003C117.513 35.3659 117.545 35.6918 117.787 35.9809C118.098 36.2963 118.454 36.3935 118.845 36.191C119.129 36.0647 119.406 35.857 119.647 35.6361C120.825 34.7157 122.109 34.0319 123.54 33.6793C126.863 32.7979 130.118 34.2429 131.701 37.2814C132.409 38.6114 132.703 40.0966 133.031 41.5949C132.773 41.6528 132.597 41.7028 132.421 41.7528C131.716 41.9528 131.421 42.3103 131.504 42.8124C131.573 43.3487 132.013 43.6351 132.768 43.6113C133.373 43.5691 134.013 43.54 134.618 43.4978C137.203 43.3131 139.685 43.5991 142.024 44.7709C142.922 45.194 143.772 45.638 144.61 46.1162C148.503 48.355 150.311 51.8325 150.185 56.2541C150.112 58.6963 149.541 61.1044 148.389 63.2892C148.024 63.9333 147.535 64.4907 146.981 65.219C144.867 58.9578 141.015 54.4609 135.221 51.6495C131.313 49.7577 127.122 49.0121 122.856 49.6888C112.654 51.3027 106.63 57.3819 104.285 67.3824C103.574 67.188 102.868 66.878 102.118 66.7862C101.402 66.7075 100.62 66.7997 99.8943 66.9523C99.1549 67.1391 98.4105 67.4416 97.7214 67.8046C97.0454 68.1333 96.4459 68.5698 95.7648 69.0143C95.5827 68.6699 95.4349 68.3388 95.3213 68.0207C88.5798 53.5535 68.7073 50.7902 58.5509 62.9298C50.87 72.0982 52.4202 85.8674 61.9528 93.3676C70.4868 100.093 82.6488 99.8189 90.4797 92.5116C96.2891 87.0949 98.3278 80.349 96.817 72.5156C96.7428 72.095 96.6212 71.6954 96.4996 71.2959C96.378 70.8963 96.4486 70.6098 96.7509 70.3337C98.0418 69.2214 99.5146 68.4534 101.215 68.3216C101.738 68.2873 102.326 68.3949 102.839 68.592C104.05 69.0175 104.122 69.2409 104.134 70.5396C104.13 79.5563 109.861 87.7541 118.492 90.9486C127.659 94.3874 137.943 91.4328 143.671 83.6712C147.288 78.7467 148.46 73.2364 147.391 67.2194C147.346 66.9276 147.301 66.6359 147.243 66.3783C147.256 66.3441 147.269 66.3099 147.261 66.2284C149.344 66.6354 151.014 67.7075 152.237 69.4317C155.08 73.3847 155.063 78.75 152.142 82.8832C151.349 84.0295 150.342 85.0156 149.37 86.0147C148.799 86.5801 148.118 87.0245 147.176 86.8197C146.554 86.6989 146.105 87.1538 146.1 87.7794C146.098 88.0923 146.164 88.4314 146.244 88.7363C146.684 90.8655 146.776 92.979 146.379 95.1399C145.793 98.405 143.796 100.54 140.839 101.797C139.574 102.331 138.248 102.411 136.902 102.13C136.397 102.014 135.865 101.967 135.355 101.967C134.681 101.983 134.344 102.246 134.198 102.935C134.07 103.474 134.057 104.018 133.963 104.57C133.548 106.881 132.355 108.658 130.462 110.01C129.181 110.891 127.851 111.595 126.38 112.05C124.333 112.677 122.43 112.417 120.736 111.1C120.095 110.619 119.495 110.036 118.915 109.5C118.011 108.682 117.216 108.809 116.873 110.01C116.522 111.13 116.171 112.25 115.524 113.218C112.462 117.924 105.717 118.512 101.919 114.388C101.753 114.207 101.621 114.039 101.442 113.891C100.635 113.229 99.7198 113.466 99.4553 114.462C98.8818 116.673 97.3652 118.169 95.614 119.458C94.6175 120.213 93.4651 120.555 92.2334 120.592C88.512 120.771 85.1418 119.831 82.0937 117.642C80.8344 116.728 79.8038 115.626 78.9808 114.291C78.4164 113.408 77.8993 112.504 77.3218 111.655C76.6809 110.664 75.8651 110.743 75.3085 111.784C75.1562 112.079 75.0382 112.386 74.886 112.681C74.5683 113.304 74.2638 113.893 73.8908 114.455C72.2888 117.095 70.0059 118.336 66.8418 117.985C61.3796 117.379 56.8602 115.135 53.6877 110.507C53.0759 109.645 52.5982 108.638 52.2836 107.615C51.8 106.214 51.5059 104.729 51.1644 103.265C50.7807 101.706 50.3758 100.1 49.9921 98.5413C49.9419 98.3652 49.9127 98.2364 49.8494 98.0945C49.5719 97.2823 49.0636 96.9696 48.4874 97.1406C47.9454 97.3247 47.7145 97.8242 47.8892 98.597C48.4848 101.139 49.0936 103.647 49.6418 106.21C50.4573 109.816 52.238 112.852 55.0916 115.241C55.5395 115.609 55.7981 116.061 55.9357 116.623C56.4753 118.595 56.2413 120.74 55.2826 122.215C54.914 122.152 54.5586 122.055 54.19 121.992C53.4871 121.879 52.9874 122.158 52.8934 122.71C52.7783 123.214 53.0368 123.666 53.7003 123.882C55.0063 124.265 56.0916 124.917 56.9641 125.918C57.262 126.268 57.5125 126.639 57.7157 127.03C57.8767 127.327 57.8876 127.606 57.688 127.921C57.2705 128.702 57.4184 129.033 58.0797 129.562C58.7068 130.077 59.3812 130.571 59.9005 131.162C60.6412 131.995 60.9085 133.039 60.7416 134.19C60.7102 134.374 60.6658 134.592 60.6002 134.763C60.1835 136.054 59.5497 136.478 58.1731 136.381C56.9596 136.268 55.9297 135.677 54.9471 135.064C54.473 134.765 54.0148 134.628 53.4911 134.663C47.8089 134.835 43.1604 132.62 39.4358 128.407C38.4183 127.271 37.6638 125.963 37.275 124.519C36.8993 123.042 36.6182 121.523 36.3714 120.017C36.1858 118.965 35.9302 118.71 34.8405 118.684C33.4245 118.69 31.9743 118.682 30.5502 118.606C25.8885 118.268 21.7691 114.061 21.0579 109.671C20.6014 106.869 20.8136 104.166 22.1577 101.584C22.436 101.064 22.5694 100.409 22.608 99.7967C22.6445 99.497 22.4282 99.1395 22.233 98.8294C22.1143 98.627 21.8746 98.535 21.6823 98.422C19.0006 96.6088 17.8995 93.9514 17.8874 90.81C17.8752 87.6686 19.2456 85.0185 21.1374 82.6468C22.107 81.4505 23.2427 80.4355 24.642 79.757C24.8314 79.6728 24.9865 79.5755 25.1548 79.444C25.6254 79.0364 25.6932 78.5527 25.2977 78.0481C24.9787 77.6512 24.6255 77.2412 24.2591 76.8654C21.5417 74.0191 20.6818 70.6308 21.5795 66.8583C22.2703 63.8298 23.7433 61.219 26.0197 59.0734C26.7715 58.3424 27.7367 57.7717 28.6414 57.2563C29.7224 56.6908 30.9038 56.4776 32.1385 56.6376C32.4043 56.6612 32.6702 56.6848 32.9149 56.6611C33.8728 56.5189 34.1351 55.8354 33.6471 55.06C33.473 54.7972 33.2779 54.487 33.2669 54.2084C33.2068 50.578 33.5495 47.0239 35.2717 43.7637C37.5374 39.4967 41.2247 37.4611 45.9884 37.3285C48.2886 37.2701 50.516 37.8111 52.6727 38.6387C53.3232 38.8882 53.9263 39.1589 54.5898 39.3743C55.3218 39.6159 55.7611 39.3924 56.0365 38.6746C57.3428 35.3726 59.6425 32.9614 62.7434 31.3282C66.4861 29.3531 70.0821 29.9095 73.5199 32.2089C73.981 32.5426 74.2578 32.8448 74.0428 33.5073C73.8803 34.0331 74.1862 34.4642 74.597 34.6218C75.0421 34.7926 75.5155 34.5822 75.8069 34.0274C75.9461 33.7671 76.0168 33.4806 76.1217 33.2072C76.6098 32.1398 77.0979 31.0724 77.6414 30.0654C78.3765 28.6614 79.5966 27.8357 81.0461 27.3333C84.6161 26.1153 87.9805 26.6612 91.1547 28.6242C92.9275 29.7357 94.3376 31.1786 95.6478 32.7792C95.835 33.0078 95.9012 33.3469 96.0148 33.665C96.258 34.4641 96.9689 34.6584 97.6078 34.1194C97.7156 34.0431 97.8023 33.9196 97.8759 33.8302C98.0099 33.6855 98.1439 33.5409 98.2437 33.3832C101.539 29.1974 105.872 28.037 110.906 29.1451C113.733 29.7596 115.936 31.3889 117.584 33.7465C117.99 34.0198 118.04 34.1959 118.124 34.3852ZM107.721 101.519C107.807 100.885 108.076 99.7733 108.101 98.685C108.175 96.7528 107.793 94.8812 107.249 93.0254C107.207 92.9308 107.199 92.8493 107.156 92.7547C106.945 92.2815 106.561 92.0555 106.174 92.1424C105.787 92.2292 105.527 92.6 105.562 93.1231C105.573 93.4017 105.699 93.6856 105.745 93.9774C105.946 95.1918 106.182 96.4194 106.35 97.6207C106.488 98.6932 106.347 99.7763 106.07 100.807C105.695 102.192 104.936 103.352 103.695 104.13C102.393 104.964 101.214 104.864 100.041 103.826C99.6828 103.532 99.3849 103.182 99.1343 102.812C98.3011 101.708 97.6705 100.486 97.3581 99.1502C97.0457 97.8149 96.7676 96.4927 96.4895 95.1705C96.4312 94.9129 96.4203 94.6342 96.349 94.4108C96.2274 94.0112 95.9375 93.7432 95.4822 93.8037C95.027 93.8643 94.8274 94.1798 94.7727 94.6294C94.7545 94.7792 94.7705 94.9422 94.7865 95.1052C95.026 97.0399 95.4286 98.9588 96.1022 100.786C96.7044 102.389 97.5565 103.853 98.8399 105.012C100.634 106.681 102.775 106.835 104.818 105.502C106.098 104.621 106.965 103.385 107.721 101.519ZM55.0185 101.921C54.8218 102.433 54.8618 102.841 55.1859 103.122C55.51 103.403 55.8917 103.432 56.2705 103.264C56.5072 103.159 56.7017 102.959 56.8831 102.793C58.2788 101.407 59.6272 100.043 60.9887 98.6438C61.1701 98.4782 61.3646 98.2783 61.4906 98.0522C61.7033 97.7025 61.6975 97.3082 61.3996 96.9587C61.0675 96.596 60.6516 96.554 60.2597 96.7565C60.023 96.8617 59.8285 97.0616 59.6471 97.2272C58.2514 98.6129 56.903 99.9776 55.5415 101.376C55.3128 101.563 55.1394 101.81 55.0185 101.921ZM130.261 101.424C130.242 101.064 130.278 100.764 130.233 100.472C129.984 98.769 129.734 97.0656 129.484 95.3622C129.46 95.1178 129.368 94.847 129.262 94.6105C129.059 94.2188 128.743 94.0191 128.322 94.0928C127.901 94.1665 127.599 94.4426 127.557 94.858C127.521 95.1577 127.531 95.4363 127.577 95.7281C127.805 97.3842 128.047 99.0061 128.289 100.628C128.321 100.954 128.408 101.34 128.608 101.535C128.83 101.777 129.206 101.921 129.533 101.889C129.764 101.9 129.998 101.598 130.261 101.424ZM134.203 93.0951C133.724 92.9112 133.35 92.9639 133.035 93.2741C132.706 93.6186 132.699 94.0471 132.936 94.4518C133.089 94.6674 133.255 94.8487 133.469 95.009C134.744 96.0865 135.985 97.1509 137.26 98.2284C137.474 98.3887 137.687 98.549 137.914 98.6751C138.346 98.88 138.754 98.8405 139.061 98.4487C139.355 98.0912 139.363 97.6627 139.078 97.2789C138.946 97.1107 138.78 96.9294 138.601 96.7822C137.325 95.7047 136.029 94.5799 134.754 93.5024C134.54 93.3421 134.327 93.1818 134.203 93.0951ZM74.0202 101.017C73.1301 100.676 72.4177 101.304 72.6347 102.171C73.132 104.048 73.6636 105.938 74.2082 107.794C74.4012 108.417 74.8885 108.682 75.3911 108.601C75.9068 108.485 76.2667 107.957 76.0868 107.299C75.6106 105.47 75.0659 103.614 74.5213 101.758C74.4208 101.406 74.1309 101.138 74.0202 101.017ZM66.5786 104.239C66.5444 104.226 66.5102 104.213 66.4759 104.2C66.7907 103.379 67.1054 102.559 67.4201 101.739C67.525 101.466 67.5957 101.179 67.5848 100.9C67.5921 100.472 67.3627 100.149 66.9862 100.004C66.5754 99.8464 66.2097 99.9806 65.9496 100.351C65.7763 100.598 65.6713 100.872 65.5664 101.145C65.0236 102.662 64.4677 104.213 63.925 105.73C63.8332 105.97 63.7414 106.209 63.718 106.474C63.6634 106.924 63.8323 107.302 64.2985 107.52C64.6961 107.712 65.2039 107.515 65.477 107.11C65.6031 106.884 65.6949 106.645 65.7867 106.405C66.0409 105.64 66.3163 104.923 66.5786 104.239ZM121.683 99.1128C121.984 98.3267 122.286 97.5406 122.588 96.7545C122.842 95.9895 122.691 95.4612 122.144 95.251C121.575 94.9935 121.096 95.3196 120.76 96.0925C120.734 96.1609 120.708 96.2292 120.695 96.2634C120.144 97.6989 119.593 99.1343 119.055 100.536C118.99 100.706 118.911 100.912 118.88 101.096C118.799 101.613 119.023 102.052 119.421 102.244C119.866 102.415 120.361 102.252 120.673 101.744C120.786 101.552 120.865 101.347 120.956 101.108C121.171 100.446 121.421 99.7963 121.683 99.1128Z" fill="white"/>
<path d="M136.998 63.192C136.911 63.3156 136.738 63.5627 136.53 63.7968C132.349 68.3482 128.146 72.8523 123.965 77.4038C123.77 77.6036 123.528 77.8245 123.278 77.9638C122.934 78.1453 122.586 78.1296 122.262 77.8484C121.938 77.5672 121.851 77.1808 122.008 76.7707C122.16 76.4762 122.334 76.2291 122.576 76.0082C126.731 71.5251 130.852 67.0289 135.007 62.5458C135.201 62.346 135.409 62.112 135.659 61.9726C136.03 61.7228 136.459 61.7306 136.838 62.0722C137.154 62.2719 137.16 62.6662 136.998 63.192Z" fill="white"/>
<path d="M71.5212 82.4532C71.621 82.2955 71.7944 82.0483 71.9889 81.8485C76.1703 77.2971 80.3728 72.7929 84.5542 68.2415C84.7487 68.0417 84.9905 67.8208 85.2061 67.6683C85.5638 67.4526 85.9797 67.4946 86.2907 67.81C86.6017 68.1253 86.6891 68.5117 86.4764 68.8614C86.3241 69.1559 86.1165 69.3899 85.9089 69.6239C81.8011 74.0859 77.659 78.5348 73.5512 82.9969C73.3436 83.2309 73.1018 83.4518 72.8257 83.6595C72.468 83.8752 72.0732 83.8805 71.7491 83.5993C71.425 83.3181 71.3719 82.9448 71.5212 82.4532Z" fill="white"/>
<path d="M130.909 57.0527C130.628 57.3761 130.468 57.589 130.273 57.7889C125.842 61.9697 121.41 66.1506 116.991 70.2972C116.87 70.4077 116.749 70.5181 116.628 70.6285C116.149 70.9546 115.639 70.9547 115.307 70.592C114.962 70.2635 114.974 69.7194 115.308 69.2593C115.455 69.0805 115.636 68.9148 115.77 68.7702C120.129 64.6787 124.5 60.5531 128.858 56.4617C129.1 56.2408 129.355 55.9858 129.647 55.941C129.939 55.8962 130.389 55.9513 130.624 56.159C130.79 56.3403 130.783 56.7688 130.909 57.0527Z" fill="white"/>
<path d="M80.4042 62.885C80.1231 63.2085 79.9628 63.4214 79.7683 63.6213C75.3364 67.8021 70.9045 71.9829 66.4857 76.1296C66.3043 76.2953 66.136 76.4267 65.9335 76.5451C65.5285 76.7818 65.1126 76.7398 64.7805 76.3771C64.4483 76.0144 64.4557 75.5859 64.6815 75.2021C64.8075 74.976 65.002 74.7761 65.1834 74.6105C69.5549 70.4849 73.9263 66.3592 78.332 62.2468C78.5265 62.0469 78.7895 61.8734 79.0393 61.734C79.4181 61.5656 79.8471 61.5734 80.0977 61.944C80.2586 62.241 80.2775 62.6012 80.4042 62.885Z" fill="white"/>
<path d="M107.721 101.519C106.931 103.372 106.098 104.621 104.77 105.523C102.714 106.891 100.574 106.736 98.7925 105.033C97.5223 103.84 96.6571 102.41 96.0549 100.807C95.3813 98.9798 95.026 97.0399 94.7392 95.1262C94.7231 94.9632 94.7071 94.8002 94.7254 94.6504C94.7669 94.235 94.9454 93.8722 95.4349 93.8248C95.8901 93.7642 96.18 94.0323 96.3016 94.4318C96.373 94.6553 96.3839 94.9339 96.4421 95.1915C96.7203 96.5137 96.9853 97.8701 97.3108 99.1713C97.6574 100.52 98.2538 101.729 99.087 102.833C99.3849 103.182 99.6828 103.532 99.9938 103.847C101.166 104.885 102.346 104.985 103.647 104.151C104.889 103.373 105.648 102.213 106.022 100.828C106.3 99.7974 106.441 98.7143 106.302 97.6418C106.135 96.4405 105.899 95.2129 105.697 93.9984C105.652 93.7066 105.56 93.4359 105.514 93.1441C105.48 92.621 105.74 92.2503 106.126 92.1634C106.513 92.0766 106.898 92.3026 107.109 92.7757C107.151 92.8703 107.193 92.965 107.201 93.0464C107.712 94.8891 108.08 96.7949 108.054 98.706C108.063 99.8075 107.841 100.898 107.721 101.519Z" fill="black"/>
<path d="M55.0185 101.921C55.1052 101.797 55.3128 101.563 55.5073 101.363C56.8688 99.9645 58.2514 98.6129 59.6129 97.2141C59.7942 97.0485 59.9887 96.8486 60.2255 96.7434C60.6647 96.5199 61.0675 96.596 61.3654 96.9455C61.6764 97.2609 61.6822 97.6552 61.4564 98.0391C61.3303 98.2652 61.1358 98.465 60.9544 98.6307C59.593 100.03 58.2103 101.381 56.8488 102.78C56.6675 102.946 56.473 103.145 56.2362 103.251C55.8443 103.453 55.4627 103.424 55.1517 103.109C54.8749 102.807 54.8218 102.433 55.0185 101.921Z" fill="black"/>
<path d="M130.261 101.424C129.998 101.598 129.764 101.9 129.519 101.924C129.206 101.921 128.83 101.777 128.595 101.569C128.395 101.375 128.342 101.001 128.275 100.662C128.034 99.0403 127.771 97.371 127.563 95.7623C127.518 95.4705 127.507 95.1919 127.544 94.8922C127.62 94.4899 127.888 94.2007 128.309 94.127C128.73 94.0533 129.08 94.2661 129.249 94.6446C129.355 94.8812 129.413 95.1388 129.471 95.3964C129.721 97.0998 129.971 98.8032 130.22 100.507C130.278 100.764 130.255 101.03 130.261 101.424Z" fill="black"/>
<path d="M134.203 93.0951C134.361 93.1949 134.574 93.3552 134.754 93.5024C136.063 94.593 137.339 95.6705 138.601 96.7822C138.78 96.9294 138.959 97.0765 139.078 97.2789C139.363 97.6627 139.355 98.0911 139.061 98.4487C138.754 98.8405 138.311 98.8669 137.914 98.6751C137.674 98.5831 137.474 98.3887 137.26 98.2284C135.985 97.1509 134.744 96.0865 133.469 95.009C133.255 94.8487 133.089 94.6674 132.936 94.4518C132.699 94.0471 132.693 93.6528 133.035 93.2741C133.316 92.9507 133.711 92.9454 134.203 93.0951Z" fill="black"/>
<path d="M74.0202 101.017C74.1178 101.172 74.4077 101.44 74.5213 101.758C75.079 103.58 75.5895 105.423 76.0868 107.299C76.2667 107.957 75.941 108.498 75.3911 108.601C74.8754 108.717 74.4012 108.417 74.2082 107.794C73.6636 105.938 73.0847 104.069 72.6347 102.171C72.4308 101.27 73.0959 100.662 74.0202 101.017Z" fill="black"/>
<path d="M66.5786 104.239C66.3163 104.923 66.0409 105.64 65.7787 106.324C65.6869 106.563 65.5951 106.802 65.469 107.029C65.1827 107.468 64.7224 107.644 64.2904 107.439C63.8585 107.234 63.6896 106.855 63.71 106.393C63.7333 106.127 63.8251 105.888 63.9169 105.649C64.4597 104.132 65.0156 102.581 65.5584 101.064C65.6633 100.79 65.7682 100.517 65.9416 100.27C66.1886 99.9333 66.5542 99.7991 66.9781 99.9226C67.389 100.08 67.6184 100.403 67.5768 100.819C67.5535 101.084 67.5039 101.418 67.4121 101.657C67.0974 102.478 66.7826 103.298 66.4679 104.118C66.5101 104.213 66.5444 104.226 66.5786 104.239Z" fill="black"/>
<path d="M121.683 99.1128C121.421 99.7963 121.171 100.446 120.909 101.129C120.83 101.334 120.739 101.574 120.626 101.765C120.313 102.273 119.853 102.449 119.374 102.265C118.963 102.108 118.738 101.669 118.832 101.117C118.864 100.933 118.942 100.728 119.008 100.557C119.559 99.1212 120.11 97.6857 120.647 96.2845C120.674 96.2161 120.7 96.1477 120.713 96.1136C121.049 95.3406 121.562 95.0277 122.096 95.272C122.644 95.4822 122.795 96.0105 122.54 96.7756C122.32 97.5537 121.984 98.3267 121.683 99.1128Z" fill="black"/>
</g>
<defs>
<clipPath id="clip0_1_35">
<rect width="132.111" height="126.367" fill="white" transform="translate(45.2698) rotate(20.9922)"/>
</clipPath>
</defs>
</svg>
