<svg width="132" height="125" viewBox="0 0 132 125" fill="none" xmlns="http://www.w3.org/2000/svg">
<g clip-path="url(#clip0_1_20)">
<path d="M93.5679 11.4119C95.5072 15.9678 96.4768 20.7449 96.7853 25.6989C97.0938 30.6529 96.5209 35.4742 95.3309 40.4282C95.8157 40.3397 96.1242 40.2513 96.4327 40.1628C106.261 37.73 115.296 39.4551 123.141 45.9572C128.739 50.6016 131.691 56.7056 131.912 64.0481C132.132 71.5234 130.369 78.5563 127.24 85.2796C122.216 96.028 114.679 104.653 105.291 111.73C97.182 117.834 88.0147 121.506 78.0982 123.452C65.0083 126.017 52.0507 125.354 39.3576 121.019C30.6751 118.056 22.83 113.588 16.0427 107.44C6.7873 98.9915 1.45442 88.5085 0.22036 75.9908C-0.132228 72.3638 -0.220375 68.781 0.484801 65.1982C2.37996 55.4671 10.5776 47.063 20.1856 45.0283C20.979 44.8514 21.7723 44.7187 22.6978 44.586C22.5656 44.0552 22.3893 43.6129 22.3012 43.1706C19.3482 33.1741 19.5245 23.2219 23.2708 13.4466C24.2404 10.9254 25.5626 8.62529 27.2815 6.54638C29.1766 4.29054 31.4244 2.47702 34.3773 1.72508C36.9335 1.06159 39.3576 1.37122 41.6935 2.60972C43.1479 3.36167 44.4701 3.2732 45.7923 2.43279C46.233 2.1674 46.6297 1.85777 47.0704 1.59238C47.8197 1.10583 48.3926 1.10583 48.7012 1.59238C49.0097 2.07893 48.8775 2.65395 48.1282 3.18474C47.2027 3.80399 46.189 4.379 45.1312 5.04249C45.3957 5.35211 45.7042 5.70597 46.0127 6.01559C46.5856 6.54638 47.2467 6.72331 47.9519 6.36945C48.613 6.01559 49.23 5.6175 49.8471 5.21941C50.1115 5.04249 50.3319 4.77709 50.6404 4.73286C50.9489 4.68863 51.3896 4.73286 51.5659 4.95402C51.7422 5.17518 51.8304 5.6175 51.7422 5.8829C51.61 6.23675 51.3015 6.54638 50.993 6.76754C50.0674 7.38679 49.0537 7.96181 47.996 8.58106C48.1282 8.84645 48.3045 9.15607 48.4808 9.50993C49.0978 10.5715 49.4504 10.7042 50.5522 10.3503C51.3456 10.0849 52.1389 9.68686 52.9322 9.333C53.1526 9.24454 53.3289 9.11184 53.5492 9.02338C53.9459 8.84645 54.3426 8.93491 54.607 9.28877C54.9155 9.68686 54.8714 10.1292 54.5629 10.483C54.2985 10.7484 53.99 11.0138 53.6374 11.1908C52.4915 11.7215 51.3456 12.1639 50.1556 12.6504C54.7833 25.2566 54.6511 37.7743 48.4808 50.0708C51.9626 51.7958 55.224 53.8305 58.0447 56.7941C58.4855 56.3075 58.8381 55.9094 59.1466 55.4671C61.0858 53.0786 63.1573 50.867 65.8017 49.1861C66.5068 48.7438 67.212 48.3457 67.9172 47.9034C67.8731 47.7265 67.8731 47.5938 67.785 47.4611C65.3609 42.7725 64.1269 37.7743 63.7302 32.5549C63.2013 25.6989 63.9065 18.9756 66.4628 12.5177C67.4324 10.0407 68.7105 7.74065 70.3412 5.70597C71.7075 4.02515 73.2501 2.60972 75.1452 1.63661C78.3626 -0.0442089 81.624 -0.0884411 84.8414 1.54815C86.3399 2.30009 87.6621 2.25586 89.0284 1.32699C89.5132 1.01736 89.998 0.663505 90.4828 0.35388C91.0558 2.31564e-05 91.5406 0.0884874 91.8491 0.486577C92.1576 0.884666 92.1135 1.50392 91.5846 1.85777C90.5709 2.56549 89.4691 3.22897 88.4113 3.89245C89.1606 5.48481 90.2184 5.8829 91.805 4.95402C92.2898 4.6444 92.7746 4.29054 93.2594 3.93668C93.9205 3.45013 94.4494 3.45013 94.802 3.89245C95.1546 4.33477 95.1105 4.95402 94.4494 5.44058C93.5679 6.10406 92.5983 6.59061 91.6728 7.16563C91.5406 7.25409 91.4083 7.29832 91.0998 7.43102C91.4524 8.00604 91.7169 8.62529 92.1135 9.15607C92.5102 9.68686 93.1713 9.4657 93.6561 9.333C94.4935 9.06761 95.3309 8.62529 96.1242 8.27143C96.3886 8.18297 96.609 7.91757 96.8735 7.91757C97.182 7.91757 97.6668 7.96181 97.799 8.18297C97.9753 8.44836 98.0194 8.97915 97.8431 9.24454C97.6668 9.59839 97.2701 9.86379 96.8735 10.0407C95.992 10.3946 94.8461 10.8811 93.5679 11.4119ZM69.4157 49.8939C67.0357 51.1766 64.8761 52.6805 63.1573 54.7152C61.3062 56.9268 59.4992 59.2268 57.7362 61.5269C57.031 62.4116 56.4581 62.7212 55.797 62.3231C55.1359 61.925 55.0918 61.1731 55.6207 60.2442C55.9292 59.7134 56.2818 59.1826 56.5903 58.6518C53.8578 55.6883 50.6404 53.6978 47.1145 52.017C46.806 52.3709 46.5416 52.6363 46.2771 52.9459C44.999 54.4055 43.5886 55.6883 41.8257 56.5729C38.5643 58.2537 35.2588 58.298 32.0414 56.5729C30.7633 55.9094 29.6174 54.9806 28.5596 54.0075C26.7967 52.3709 25.4745 50.3362 24.4167 48.213C23.7115 46.8418 23.7115 46.8418 22.1689 47.063C22.0808 47.063 21.9926 47.1072 21.9486 47.1072C12.8254 48.4784 4.75993 56.3075 2.90884 65.552C2.20367 68.8694 2.29181 72.2311 2.60033 75.637C3.70216 86.5623 8.02136 96.028 15.7342 103.769C23.1826 111.244 32.1295 116.242 42.0901 119.383C52.4033 122.611 62.8928 123.275 73.6027 121.815C87.7062 119.869 100.091 114.252 110.448 104.299C117.191 97.8415 122.612 90.4547 126.138 81.741C128.386 76.2562 129.664 70.5945 129.532 64.6232C129.4 57.546 126.579 51.7074 120.982 47.4169C113.181 41.4455 104.498 40.207 95.1987 43.1706C94.5376 43.3917 94.185 43.7898 93.9205 44.4091C92.9068 46.9303 91.6287 49.3188 89.9098 51.442C88.5436 53.1228 86.9128 54.5382 84.9295 55.5113C81.8003 57.0595 78.6711 57.0595 75.5419 55.5113C73.3823 54.4498 71.6634 52.8574 70.209 50.9554C69.9886 50.6016 69.6801 50.2477 69.4157 49.8939ZM24.1963 40.2955C24.1522 40.6051 24.1082 40.6936 24.1082 40.7378C25.1219 44.5418 26.5763 48.1246 29.1325 51.1324C30.014 52.1497 31.0277 53.1228 32.1736 53.8748C35.3028 55.9979 38.5202 55.9979 41.6053 53.8748C42.7953 53.0343 43.8972 51.9728 44.8668 50.867C46.2771 49.2746 47.2908 47.3726 48.0841 45.4264C51.5219 36.9338 51.8745 28.1759 49.8911 19.2852C49.8471 19.1525 49.803 19.0641 49.7149 18.9756C49.4504 19.8602 49.3623 20.7007 49.2741 21.5411C48.8334 24.9912 47.6875 28.2644 46.6297 31.5375C45.616 34.6338 43.8972 37.2877 41.6935 39.632C39.6661 41.7994 37.1539 42.9937 34.201 43.1263C32.6584 43.2148 31.0718 43.0379 29.5292 42.8167C27.59 42.5071 25.827 41.7109 24.1963 40.2955ZM67.5646 39.2339C67.5646 39.4551 67.5205 39.632 67.5646 39.7647C68.5783 43.5244 70.0768 47.063 72.589 50.0708C73.6027 51.3093 74.7486 52.3266 76.1589 53.1228C78.8915 54.6709 81.6681 54.6709 84.4447 53.167C85.8992 52.3709 87.0891 51.2208 88.1469 49.9381C89.998 47.6823 91.2761 45.161 92.2457 42.4186C94.9342 34.5453 95.1987 26.5393 93.3916 18.4891C93.3476 18.2679 93.2154 18.0467 92.995 17.5602C92.9068 18.3564 92.8628 18.9314 92.8187 19.4622C92.378 23.8411 90.9676 27.9547 89.381 32.0683C88.4113 34.5895 86.7806 36.7127 84.9295 38.6589C83.431 40.207 81.58 41.3128 79.4644 41.7109C75.4097 42.4629 71.4871 42.0648 68.0494 39.5435C67.9172 39.3666 67.7409 39.3224 67.5646 39.2339Z" fill="black"/>
<path d="M69.4157 49.8938C69.6801 50.2477 69.9886 50.6016 70.2531 50.9996C71.7075 52.9016 73.4264 54.494 75.586 55.5555C78.7152 57.1037 81.8444 57.1037 84.9736 55.5555C86.9569 54.5824 88.5436 53.167 89.9539 51.4862C91.6728 49.3631 92.995 47.0187 93.9646 44.4533C94.229 43.834 94.5816 43.4359 95.2427 43.2148C104.542 40.2512 113.225 41.4455 121.026 47.4611C126.623 51.7516 129.444 57.5902 129.576 64.6674C129.708 70.6387 128.386 76.3004 126.182 81.7852C122.656 90.4989 117.191 97.8415 110.492 104.344C100.135 114.296 87.7503 119.869 73.6468 121.86C62.981 123.363 52.4474 122.7 42.1342 119.427C32.1736 116.286 23.1826 111.288 15.7783 103.813C8.02138 95.9837 3.70218 86.5623 2.60034 75.6369C2.24775 72.2753 2.20368 68.8694 2.86478 65.552C4.71587 56.3075 12.7813 48.4784 21.9045 47.1072C21.9927 47.1072 22.0808 47.063 22.1249 47.063C23.6675 46.8418 23.6675 46.8418 24.3726 48.213C25.4745 50.3804 26.7526 52.4151 28.5155 54.0074C29.5733 54.9805 30.7633 55.9094 31.9973 56.5729C35.2147 58.2979 38.5202 58.2537 41.7816 56.5729C43.5005 55.6882 44.9549 54.4055 46.2331 52.9459C46.4975 52.6362 46.7619 52.3708 47.0705 52.017C50.5963 53.6978 53.8578 55.6882 56.5462 58.6518C56.1937 59.1826 55.8851 59.7134 55.5766 60.2442C55.0478 61.173 55.0918 61.925 55.7529 62.3231C56.414 62.7212 56.987 62.4115 57.6922 61.5269C59.4551 59.2268 61.218 56.9267 63.1132 54.7151C64.8761 52.6805 66.9917 51.1766 69.4157 49.8938ZM47.379 72.6734C46.9823 72.6292 46.2771 72.5849 45.5279 72.5407C45.2634 72.5407 44.9549 72.4965 44.6905 72.4965C43.6327 72.6291 43.2801 73.4696 43.809 74.3984C44.1616 75.0619 44.5583 75.6812 44.8227 76.3889C45.4397 77.8928 46.0127 79.3967 46.5856 80.8563C47.996 84.4391 49.9352 87.6681 52.3593 90.6316C54.0341 92.6663 56.0614 94.3914 58.3533 95.6741C61.5706 97.4876 64.9643 98.6819 68.4902 99.6107C74.2638 101.115 79.7289 100.318 85.0618 97.7972C88.9843 95.9395 91.805 92.9759 93.4798 88.995C94.1409 87.4027 94.6257 85.7219 94.9783 84.041C95.7716 80.3698 95.1987 76.8754 93.568 73.5138C90.8795 68.029 86.2077 65.2424 80.1696 65.7289C78.01 65.9059 75.8064 66.304 73.7349 66.879C70.209 67.8521 66.7272 69.0906 63.2013 70.1522C58.177 71.7003 53.0644 72.7176 47.379 72.6734Z" fill="white"/>
<path d="M24.1963 40.2955C25.8271 41.7109 27.59 42.5071 29.5733 42.8167C31.1159 43.0379 32.7025 43.2148 34.2451 43.1263C37.1539 42.9936 39.7102 41.7994 41.7376 39.632C43.9412 37.2877 45.6601 34.6338 46.6738 31.5375C47.7316 28.2643 48.9215 24.9912 49.3182 21.541C49.4063 20.7006 49.4945 19.8602 49.7589 18.9756C49.803 19.0641 49.8912 19.1967 49.9352 19.2852C51.9185 28.1759 51.5659 36.8896 48.1282 45.4264C47.3349 47.4168 46.3212 49.2746 44.9109 50.867C43.9412 51.9728 42.8835 53.0786 41.6494 53.8747C38.5643 55.9979 35.3028 55.9979 32.2177 53.8747C31.1159 53.1228 30.0581 52.1497 29.1766 51.1323C26.6204 48.1246 25.1659 44.5418 24.1523 40.7378C24.1082 40.6493 24.1523 40.6051 24.1963 40.2955Z" fill="white"/>
<path d="M67.5646 39.2339C67.785 39.3224 67.9172 39.4108 68.0494 39.4993C71.5312 42.0205 75.4097 42.4186 79.4644 41.6667C81.58 41.2686 83.431 40.207 84.9295 38.6147C86.7806 36.6684 88.4113 34.5453 89.381 32.0241C90.9235 27.9547 92.3339 23.8411 92.8187 19.4179C92.8628 18.8871 92.9068 18.3121 92.995 17.5159C93.1713 18.0025 93.3476 18.2236 93.3916 18.4448C95.1546 26.5393 94.9342 34.5453 92.2457 42.3744C91.3202 45.1168 89.998 47.638 88.1469 49.8938C87.0891 51.1766 85.8992 52.2824 84.4447 53.1228C81.6681 54.6709 78.9356 54.6267 76.1589 53.0786C74.7926 52.2824 73.6027 51.2208 72.589 50.0265C70.0768 47.0188 68.5783 43.4802 67.5646 39.7205C67.5205 39.5878 67.5646 39.4551 67.5646 39.2339Z" fill="white"/>
<path d="M47.379 72.6734C53.0644 72.7176 58.177 71.7003 63.2454 70.1964C66.7713 69.1348 70.2531 67.8963 73.779 66.9232C75.8945 66.3482 78.0541 65.9501 80.2137 65.7732C86.2958 65.2424 90.9235 68.029 93.612 73.558C95.2427 76.9197 95.8157 80.4582 95.0224 84.0853C94.6698 85.7661 94.185 87.4469 93.5239 89.0393C91.8491 93.0202 89.0284 95.9837 85.1058 97.8415C79.773 100.363 74.3078 101.203 68.5342 99.655C65.0083 98.7261 61.5706 97.5318 58.3973 95.7183C56.1055 94.3913 54.0781 92.7105 52.4033 90.6758C49.9793 87.7123 47.996 84.4833 46.6297 80.9005C46.0568 79.3967 45.4838 77.8928 44.8668 76.4331C44.6023 75.7696 44.2057 75.1061 43.8531 74.4427C43.3242 73.5138 43.7209 72.6734 44.7345 72.5407C44.999 72.4964 45.2634 72.5407 45.5719 72.5849C46.2771 72.6291 47.0264 72.6734 47.379 72.6734ZM63.9065 95.5414C64.3913 95.7625 64.6117 95.8952 64.832 95.9837C66.5509 96.4703 68.2698 97.0453 70.0327 97.4434C75.5419 98.7703 80.7426 97.6645 85.5025 94.7894C90.5269 91.7374 92.4661 86.8277 92.9509 81.2102C92.995 80.7679 92.8628 80.414 92.4661 80.1044C91.8491 79.7063 91.3202 79.1755 90.7032 78.7332C87.618 76.61 84.4447 76.4773 81.2274 78.4678C80.6103 78.8216 79.9933 79.2197 79.5085 79.7063C77.9219 81.2102 76.3352 82.7141 74.8367 84.3507C73.5145 85.8103 72.4127 87.4469 71.1786 88.995C69.1953 91.472 67.1239 93.949 63.9065 95.5414Z" fill="black"/>
<path d="M63.9065 95.5414C67.0798 93.9491 69.1512 91.4721 71.1786 88.9508C72.4127 87.4469 73.5145 85.7661 74.8367 84.3065C76.2911 82.6699 77.9219 81.166 79.5085 79.6621C79.9933 79.1755 80.6103 78.8217 81.2274 78.4236C84.4447 76.4331 87.618 76.5658 90.7032 78.689C91.3202 79.1313 91.8491 79.6621 92.4661 80.0602C92.9068 80.3256 92.995 80.6794 92.9509 81.166C92.4661 86.8277 90.5709 91.6932 85.5025 94.7452C80.7426 97.6203 75.5419 98.7261 70.0327 97.3992C68.2698 97.0011 66.5509 96.4261 64.832 95.9395C64.6117 95.8953 64.3913 95.7626 63.9065 95.5414Z" fill="white"/>
</g>
<defs>
<clipPath id="clip0_1_20">
<rect width="132" height="125" fill="white"/>
</clipPath>
</defs>
</svg>
