<svg width="238" height="267" viewBox="0 0 238 267" fill="none" xmlns="http://www.w3.org/2000/svg">
<g clip-path="url(#clip0_1_40)">
<path d="M-1.11461e-05 258.649C1.80644 257.746 3.8387 257.596 5.79569 257.37C10.1613 256.919 14.5269 256.467 18.8925 256.467C35.8279 256.543 52.6882 255.866 69.6236 256.543C77.6021 256.844 85.6559 257.295 93.6344 257.37C95.0645 257.37 96.7204 257.746 97.9247 255.941C94.6129 250.599 94.086 244.656 96.043 238.487C94.4624 236.907 91.9032 237.283 90.3978 235.402C91.1505 233.747 91 231.866 91 229.986C91 220.958 91 211.93 91.7527 202.977C92.5806 193.423 94.3118 184.169 98.0753 175.292C98.3011 174.765 98.5269 174.163 98.8279 173.26C93.9355 170.025 88.9677 166.866 84.5269 162.577C83.7742 165.963 83.7742 169.198 80.6129 170.702C80.2365 170.326 79.9355 169.875 80.086 169.423C81.2903 165.888 81.8172 162.051 84.5269 159.117C86.4086 159.117 87.7634 160.396 89.043 161.524C100.935 172.207 115.161 177.022 130.892 177.85C132.172 177.925 133.376 177.85 134.581 178.226C135.559 178.602 136.462 179.204 136.462 180.332C136.462 181.611 135.333 181.912 134.355 182.063C130.892 182.439 127.355 182.363 123.817 181.987C117.57 181.31 111.473 179.881 105.677 177.398C102.667 176.119 101.387 177.097 100.409 179.881C98.0752 186.426 96.7957 193.197 95.9677 200.043C94.8387 209.673 95.1398 219.303 95.1398 228.932C95.1398 233.597 95.5161 234.199 99.8817 235.101C109.064 237.133 118.323 238.336 127.731 238.938C137.892 239.615 147.978 239.39 158.14 239.615C165.14 239.766 172.14 238.637 179.14 238.713C182.978 238.788 183.882 237.659 183.957 234.048C184.484 215.09 183.204 196.281 178.387 177.774C177.183 173.11 177.183 173.035 172.591 174.765C168.452 176.345 164.312 177.774 160.097 178.903C158.892 179.204 157.688 179.655 156.409 179.73C154.828 179.881 152.796 180.257 152.344 178.15C151.892 175.969 153.925 175.593 155.505 175.216C165.366 172.658 174.925 169.273 183.806 164.157C187.72 161.9 191.183 158.966 194.645 156.107C195.699 155.28 196.602 154.151 198.108 153.926C199.011 154.076 199.237 154.828 199.462 155.505C200.892 159.267 203.226 161.9 207.516 162.352C208.118 162.427 208.72 162.653 209.097 163.179C204.43 164.609 201.118 163.405 197.28 158.816C192.161 163.405 186.516 167.242 180.194 170.402C185.312 186.351 187.118 202.601 187.796 219.077C188.097 226.299 188.021 233.597 186.968 240.744C185.613 242.248 183.656 241.647 181.849 242.474C181.699 246.386 181.398 250.298 179.892 254.21C183.505 255.038 187.269 254.286 189.903 256.994C192.312 255.941 194.344 254.662 196.602 253.91C197.731 253.533 198.785 253.308 199.914 253.232C202.774 253.007 203 253.232 204.204 256.392C204.882 256.392 205.559 256.392 206.312 256.392C207.064 256.392 207.742 256.618 208.495 256.844C210.376 257.37 209.624 260.154 211.957 260.38C213.688 260.53 214.591 262.11 214.591 263.991C218.656 263.314 222.495 262.636 226.258 262.11C229.118 261.734 231.978 261.508 234.839 261.282C235.064 261.282 235.366 261.207 235.591 261.282C236.344 261.508 237.021 261.884 236.946 262.787C236.946 263.464 236.419 263.915 235.742 264.066C234.161 264.292 232.505 264.517 230.925 264.593C226.183 264.969 221.441 265.646 216.849 266.624C214.742 267.075 212.634 267.15 210.452 267C209.624 267 208.57 267 208.269 265.947C207.968 264.893 208.57 264.292 209.473 263.915C209.774 263.765 210.151 263.69 210.226 262.862C209.473 262.486 208.495 262.561 207.591 262.712C206.613 262.862 205.559 263.314 204.882 262.26C204.129 261.132 205.409 260.53 205.71 259.627C203.075 258.047 200.516 261.583 197.957 259.778C197.204 257.822 199.462 257.596 199.839 256.392C197.505 256.091 197.505 256.091 194.419 257.671C192.763 258.499 191.183 259.477 189.376 260.53C187.344 258.198 184.785 257.22 181.774 257.22C178.613 257.22 176.355 258.724 174.323 261.282C171.086 259.552 168 257.822 164.462 256.994C160.398 256.091 157.688 258.95 154.677 260.229C154.226 259.928 153.925 259.778 153.849 259.627C152.495 256.467 151.064 255.715 147.828 256.467C146.323 256.844 145.043 257.671 143.914 258.574C142.86 259.402 141.806 260.304 140.602 261.358C137.516 258.574 134.28 257.822 131.269 261.282C127.054 257.445 123.742 256.994 118.548 259.627C116.064 260.906 115.688 260.831 113.656 259.025C111.473 257.069 110.871 256.994 108.538 258.574C106.355 260.003 104.097 260.304 101.763 259.401C100.785 259.101 99.8064 258.499 98.9032 259.251C97.3978 260.605 95.6667 260.38 93.9355 260.304C78.8817 259.928 63.9032 258.724 48.8495 259.176C37.3333 259.552 25.8172 259.176 14.2258 259.552C9.33332 259.702 4.51612 260.53 -0.301086 261.057C-1.11461e-05 260.154 -1.11461e-05 259.401 -1.11461e-05 258.649Z" fill="#080808"/>
<path d="M209.247 163.104C208.495 163.104 207.742 163.104 206.989 163.104C204.806 163.179 202.925 162.653 201.796 160.546C201.645 160.245 201.344 159.944 201.043 159.718C198.935 158.289 198.484 156.258 198.71 153.926C198.484 152.045 199.839 150.916 200.742 149.637C203.527 145.65 204.355 141.587 202.473 136.923C199.387 129.099 197.054 121.049 196.903 112.473C196.903 111.946 196.753 111.494 196.677 110.968C196.301 108.786 194.72 108.259 192.839 108.184C190.505 108.184 190.731 109.99 190.806 111.419C190.957 116.309 190.129 120.899 187.946 125.262C181.925 137.224 168.602 136.773 161.151 128.271C156.032 122.403 154.527 114.88 154.226 107.281C154.151 106.303 154.226 105.25 154.903 104.423C156.032 103.068 157.161 102.768 158.065 104.573C158.817 106.153 158.968 107.959 159.194 109.689C159.796 114.353 160.849 118.792 163.333 122.855C166.043 127.218 169.957 129.926 175.151 129.475C180.269 129.099 183.204 125.638 184.71 121.049C186.817 114.429 186.968 108.109 183.054 101.639C180.57 97.5013 178.312 95.7709 173.57 96.2223C169.204 96.5985 165.591 94.4167 163.108 90.7303C161.903 88.9248 160.849 88.022 158.516 89C151.742 91.8588 145.946 89.4514 140.903 85.0127C138.344 82.7557 136.538 81.6272 133.226 83.8842C128.86 86.8182 121.032 85.1631 116.817 81.251C115.989 80.4987 115.538 79.3702 114.032 78.9188C108.237 84.6365 101.237 84.486 93.3333 81.8529C93.5591 91.257 89.6451 97.3508 80.6129 98.9307C80.1613 100.511 81.1398 101.413 81.4408 102.467C82.7957 107.432 83.4731 112.322 80.5376 116.986C79.6344 118.491 79.6344 119.62 80.8387 120.974C85.5806 126.165 86.9355 132.033 83.8495 138.578C83.0968 140.233 83.4731 141.362 84.5269 142.641C87.914 146.628 88.9677 150.766 85.2043 155.129C84.1505 156.333 84.7527 157.762 84.5269 159.117C84.2258 159.643 83.6989 160.245 83.7742 160.772C83.9247 163.781 82.3441 166.113 80.9892 168.521C80.6129 169.198 80.7634 169.95 80.7634 170.702C77.3763 173.411 73.914 172.132 70.6021 170.627C68.4193 169.649 66.8387 167.768 64.8817 165.963C59.086 169.348 53.4408 168.897 48.3226 164.533C43.5054 160.396 41.3226 155.205 42.6774 148.659C36.8817 147.004 32.215 143.995 29.4301 138.729C26.6452 133.387 27.3226 127.82 29.5054 122.253C26.7957 119.168 23.8602 116.309 21.7527 112.698C20.3978 110.441 19.1935 108.109 18.5914 105.476C17.086 99.3068 19.4193 92.4607 26.871 90.5046C28.1505 90.1285 29.5054 89.9028 31.0107 89.5266C30.4086 87.4201 29.0538 85.765 28.1505 83.8842C26.4194 80.3483 25.6667 76.6619 26.3441 72.5993C27.0215 68.3863 29.4301 65.5275 32.8925 63.4962C36.0538 61.6154 39.5161 60.4869 43.2796 60.7126C44.1075 60.7878 45.0107 60.7126 46.1398 60.7126C45.7634 58.5308 45.3871 56.5748 45.086 54.6188C44.4839 50.7819 44.5591 46.945 45.2366 43.033C47.3441 30.5444 60.5161 25.4286 70.7527 29.4911C72.1075 30.0177 73.4624 30.7701 75.1183 31.5224C75.871 28.3626 76.6236 25.2781 78.129 22.4193C80.1613 18.3567 82.6452 14.5951 86.1075 11.5858C92.2043 6.31951 99.3548 5.34149 106.957 7.14707C112 8.35079 116.591 10.6078 120.656 13.918C121.935 13.6171 122.011 12.4886 122.462 11.661C123.968 9.17835 125.774 6.92137 127.806 4.8901C132.699 0.0752178 138.344 -1.05327 144.742 1.05324C149.935 2.78359 154.452 5.56719 158.366 9.70497C160.699 7.52323 163.409 5.94335 166.344 4.81486C171.613 2.70835 176.882 2.78359 181.925 5.49195C188.097 8.80218 193.366 13.1657 195.548 20.1623C196 20.1623 196.301 20.2375 196.527 20.1623C201.72 17.6044 206.237 19.1843 210.452 22.4193C212.935 24.3001 215.118 26.557 216.849 29.2654C219.634 33.5537 220.462 38.2181 219.71 43.3339C221.742 44.989 223.849 46.3432 225.505 48.224C227.462 50.5562 229.118 53.1141 229.495 56.1234C230.097 60.1107 229.344 63.7971 225.957 66.5807C238.151 71.3204 240.183 84.9374 229.871 94.0406C238.828 100.511 241.161 112.096 232.129 119.921C233.785 121.801 235.667 123.456 236.796 125.789C239.731 131.732 237.398 137.901 231.452 139.932C230.548 140.233 229.57 140.459 228.366 140.76C228.817 142.415 228.892 143.995 228.968 145.575C229.043 148.81 227.538 151.067 224.753 152.496C222.871 153.474 220.839 154.076 218.656 154.076C217.527 154.076 216.473 154.076 215.344 154.076C213.989 157.762 213.613 161.825 209.247 163.104Z" fill="black"/>
<path d="M84.3763 159.117C84.0753 157.988 82.6452 157.612 82.5699 156.032C85.0538 154.302 87.1613 152.045 86.4839 148.509C85.957 145.199 83.6989 143.017 81.2903 140.609C84.1505 137.299 84.9032 133.462 84.1505 129.4C83.3978 125.262 81.215 122.027 77.2258 119.544C79.8602 116.46 81.7419 113.3 81.5914 109.087C81.4409 105.1 79.9355 101.639 77.9032 98.2536C91.0753 96.0719 92.7312 89.6771 91.9032 80.3483C99.8817 82.9062 107.785 84.8622 114.183 76.5114C117.495 81.4015 121.86 84.6365 128.108 84.2604C131.495 84.1099 133.452 83.1319 135.935 80.3483C137.817 80.4987 138.871 82.0034 140.075 83.2071C142.71 85.8402 145.796 87.6458 149.409 88.5486C153.774 89.6771 157.839 88.8495 161.753 86.2164C163.258 90.0533 165.516 93.0626 169.43 94.492C173.269 95.9214 177.032 95.7709 181.097 94.5672C181.925 96.6737 181.925 99.1564 183.43 101.037C189.151 108.109 187.871 115.783 184.785 123.306C183.054 127.594 179.516 130.453 174.624 130.528C169.505 130.604 165.441 128.422 162.656 124.058C159.946 119.695 158.892 114.805 158.065 109.915C157.688 107.959 157.538 106.003 157.312 104.122C156.108 103.369 155.43 103.896 155.129 104.799C154.903 105.401 154.978 106.003 154.978 106.68C155.505 113.074 156.71 119.319 159.871 125.036C163.333 131.205 171.011 134.741 177.409 133.011C182.903 131.506 186.29 127.669 188.172 122.403C189.602 118.341 189.978 114.128 189.753 109.839C189.677 108.861 189.602 107.883 189.452 106.529C192.237 106.905 194.57 108.109 197.204 107.507C197.882 112.773 197.957 117.664 199.011 122.478C200.064 127.143 201.269 131.732 203.226 136.096C205.785 141.813 204.581 146.779 200.742 151.443C200.065 152.271 199.387 153.173 198.634 154.076C195.398 156.634 192.462 159.568 189.151 161.975C182.301 166.941 174.624 170.326 166.72 173.035C162.731 174.464 158.667 175.743 154.452 176.571C153.323 176.796 152.194 177.097 152.72 178.677C156.86 179.279 165.215 176.947 177.333 171.831C182.753 180.558 187.645 227.653 184.333 239.014C182.602 239.615 180.72 239.691 178.914 239.841C164.161 240.669 149.333 240.819 134.581 240.368C122.839 240.067 111.097 238.863 99.5806 236.155C97.7742 235.703 95.9677 235.101 94.3871 234.575C93.6344 233.446 93.9355 232.468 93.9355 231.49C94.0107 224.569 94.0107 217.723 94.2365 210.801C94.5376 201.773 95.4409 192.821 98 184.094C98.9032 180.859 100.108 177.774 101.538 174.464C112.677 179.73 124.118 181.686 136.086 181.235C136.462 179.505 135.71 178.978 134.355 178.903C131.118 178.828 127.882 178.602 124.645 178.226C115.161 177.172 106.28 174.389 98.1505 169.499C93.8602 166.941 89.871 163.856 86.1828 160.471C85.5806 160.019 84.9785 159.568 84.3763 159.117Z" fill="#FEFEFE"/>
<path d="M131.72 256.994C126.753 253.759 121.785 254.812 116.667 257.37C115.387 256.091 113.806 255.113 111.774 254.286C113.505 250.223 113.957 246.01 113.656 241.421C131.72 243.678 149.559 242.85 167.774 242.926C167.021 246.838 166.796 250.599 168.301 254.737C163.86 253.383 160.021 253.91 156.333 255.941C150.688 250.825 145.72 253.684 140.828 257.445C137.817 255.941 134.806 255.565 131.72 256.994Z" fill="#FDFDFD"/>
<path d="M98.8279 238.863C102.968 239.615 106.882 240.292 111.097 241.045C111.398 245.634 111.097 250.073 108.763 254.06C106.581 257.897 103.419 258.123 100.785 254.662C97.0215 249.922 97.2473 244.581 98.8279 238.863Z" fill="#FBFBFB"/>
<path d="M173.645 257.145C168.978 253.157 169.882 248.192 170.409 242.85C173.269 242.7 175.978 242.625 178.688 242.474C179.968 248.342 178.086 254.06 173.645 257.145Z" fill="#F8F8F8"/>
<path d="M153.323 202.451C147.527 202.15 142.032 200.57 136.387 199.817C133.753 199.441 131.194 199.065 128.559 199.742C127.731 199.968 126.978 199.667 126.753 198.839C126.452 197.711 127.28 197.184 128.183 197.034C131.043 196.432 133.903 196.658 136.763 197.034C138.871 197.26 140.978 197.636 143.011 198.162C145.57 198.764 147.903 198.689 150.237 197.26C152.118 196.056 154.075 194.927 156.032 193.799C156.86 193.347 157.613 192.971 158.516 194.25C158.065 196.959 154.903 197.109 153.473 198.99C156.484 200.269 163.634 200.043 170.409 198.538C171.613 199.817 171.086 200.795 169.731 201.397C167.849 202.3 165.817 202.3 163.86 202.375C162.204 202.375 160.774 202.827 159.269 203.654C153.398 206.739 147.151 208.243 140.527 208.469C139.548 208.469 138.495 208.394 137.591 208.168C136.839 207.943 136.312 207.341 136.538 206.438C136.763 205.535 137.441 205.309 138.269 205.46C143.462 206.814 148.054 204.407 152.871 203.278C152.946 203.128 153.097 202.827 153.323 202.451Z" fill="#0B0B0B"/>
<path d="M102.667 113.601C103.645 114.429 103.269 115.482 103.344 116.46C103.946 122.328 105.978 127.669 110.118 131.958C113.28 135.343 117.118 137.374 121.86 136.02C127.129 134.591 130.441 131.055 131.72 125.713C132.849 121.124 132.247 116.535 131.344 111.946C131.043 110.366 130.591 108.786 130.29 107.206C130.064 106.379 129.839 105.476 130.516 104.648C131.72 104.197 132.548 104.874 132.774 105.852C134.731 113.676 136.688 121.5 133.376 129.4C130.215 136.848 120.957 142.49 111.548 136.848C109.667 135.719 108.161 134.215 106.882 132.56C103.194 127.669 100.634 122.328 100.71 116.008C100.785 114.805 100.785 113.526 102.667 113.601Z" fill="#0D0D0D"/>
<path d="M145.194 155.355C141.054 155.43 138.645 152.872 139.323 149.562C139.473 148.81 139.849 148.133 140.753 148.133C141.656 148.133 141.957 148.81 142.183 149.562C142.935 152.571 143.688 153.023 146.473 152.27C147.226 152.045 147.903 151.744 148.581 151.443C149.333 151.067 150.086 150.992 150.538 151.744C151.14 152.647 150.538 153.399 149.86 154.001C148.957 154.753 147.828 154.979 146.699 155.129C146.021 155.129 145.419 155.28 145.194 155.355Z" fill="#242424"/>
<path d="M105.527 97.5012C104.699 97.426 104.247 97.1251 104.097 96.5984C103.495 94.2662 106.054 91.4074 108.462 91.8588C109.215 92.0093 109.892 92.3854 110.043 93.213C110.194 94.1158 109.817 94.7929 108.914 94.7176C106.806 94.6424 106.957 96.8994 105.527 97.5012Z" fill="#252525"/>
</g>
<defs>
<clipPath id="clip0_1_40">
<rect width="238" height="267" fill="white"/>
</clipPath>
</defs>
</svg>
